<svg width="214" height="99" viewBox="0 0 214 99" fill="none" xmlns="http://www.w3.org/2000/svg">
<rect x="214" width="99" height="214" rx="16" transform="rotate(90 214 0)" fill="white" fill-opacity="0.35"/>
<rect x="12" y="87" width="75" height="190" rx="12" transform="rotate(-90 12 87)" fill="white" fill-opacity="0.3"/>
<path d="M30 49.2609C30.3041 48.2597 30.8569 47.3751 31.3237 46.4507C31.8121 45.4863 31.7875 44.4574 31.7138 43.4193C31.6831 42.9924 31.6769 42.5655 31.7076 42.1416C31.7691 41.2387 32.1714 40.5169 32.8594 39.9395C33.2894 39.5771 33.7439 39.2485 34.2077 38.9321C35.0799 38.3363 35.7003 37.5531 36.0873 36.5734C36.2593 36.1372 36.4682 35.7134 36.6555 35.2803C37.1592 34.1194 38.0714 33.4928 39.2968 33.2778C39.7176 33.2041 40.1353 33.1151 40.5561 33.0506C41.6249 32.8847 42.5309 32.4056 43.3141 31.6685C43.6243 31.3767 43.9621 31.1126 44.2846 30.8331C45.2091 30.0346 46.2656 29.8288 47.4358 30.139C47.7736 30.228 48.1145 30.3018 48.4432 30.4123C49.6594 30.8208 50.8664 30.8147 52.0827 30.4154C52.6263 30.2373 53.1822 30.0991 53.7534 30.0253C54.5551 29.924 55.2645 30.1298 55.9157 30.5874C56.3026 30.8607 56.6773 31.1525 57.009 31.4873C57.9765 32.4609 59.1467 32.983 60.498 33.1489C60.8973 33.198 61.2904 33.3086 61.6836 33.3976C62.6602 33.6218 63.3451 34.2085 63.7782 35.0961C64.0085 35.569 64.2358 36.0451 64.4262 36.5365C64.8255 37.55 65.4643 38.3578 66.3704 38.969C66.8372 39.2822 67.2856 39.617 67.7156 39.9856C68.4343 40.5998 68.7936 41.3707 68.8336 42.3075C68.8612 42.9033 68.8182 43.4991 68.7813 44.0919C68.7138 45.1239 68.9533 46.0698 69.4601 46.9605C69.6874 47.3598 69.8962 47.7713 70.1081 48.1767C70.6763 49.2609 70.6733 50.3481 70.1081 51.4323C69.9546 51.7302 69.8194 52.0435 69.6382 52.323C68.8704 53.5116 68.6554 54.8077 68.812 56.1898C68.8612 56.6259 68.8489 57.0651 68.8182 57.5012C68.7475 58.5332 68.2009 59.2826 67.4054 59.8815C67.0368 60.1579 66.6713 60.4374 66.2905 60.6984C65.4367 61.2789 64.8347 62.0529 64.4539 63.0081C64.2788 63.4442 64.0792 63.8711 63.8918 64.3041C63.382 65.4774 62.4698 66.1162 61.229 66.3281C60.8205 66.3988 60.412 66.4848 60.0036 66.5493C58.9255 66.7182 58.0072 67.1942 57.2148 67.9436C56.9046 68.2354 56.5668 68.4995 56.2443 68.779C55.3167 69.5745 54.2602 69.7803 53.0931 69.467C52.7584 69.3779 52.4144 69.3042 52.0857 69.1937C50.8695 68.7883 49.6625 68.7944 48.4462 69.1937C47.9149 69.3687 47.3682 69.5039 46.8092 69.5776C45.9861 69.6851 45.2521 69.4762 44.5856 68.994C44.2109 68.7237 43.8454 68.4412 43.5199 68.1126C42.5524 67.139 41.3822 66.6199 40.0309 66.4541C39.6316 66.4049 39.2385 66.2943 38.8453 66.2053C37.884 65.9841 37.1991 65.4037 36.7691 64.5314C36.5265 64.04 36.2962 63.5394 36.0935 63.0296C35.7034 62.0498 35.0861 61.2666 34.2138 60.6708C33.7316 60.3422 33.2586 59.9982 32.8133 59.6173C32.1038 59.0123 31.7476 58.2506 31.7015 57.3261C31.6708 56.672 31.7353 56.0239 31.7599 55.3759C31.7875 54.5313 31.6401 53.7266 31.2377 52.9741C30.7832 52.1172 30.2918 51.2788 30.0031 50.342C30 49.9796 30 49.6202 30 49.2609ZM36.2931 49.7769C36.2931 57.5074 42.5555 63.7667 50.3013 63.7513C57.9089 63.736 64.0577 57.6333 64.2358 50.1454C64.4201 42.3105 58.1638 36.0144 50.5839 35.8516C42.666 35.6796 36.2931 42.0741 36.2931 49.7769Z" fill="#141820"/>
<path d="M104.169 42.6879C106.525 38.689 113.355 38.5508 115.548 42.866C115.68 42.8476 115.705 42.7217 115.76 42.6357C117.102 40.6578 119.003 39.7394 121.362 39.678C122.83 39.6412 124.231 39.8838 125.499 40.6578C127.397 41.8187 128.408 43.5632 128.758 45.7223C128.868 46.4011 128.896 47.0829 128.893 47.7709C128.89 51.5363 128.887 55.3017 128.899 59.0671C128.899 59.3497 128.85 59.448 128.54 59.4388C127.64 59.4142 126.74 59.4173 125.837 59.4357C125.57 59.4418 125.505 59.3681 125.508 59.104C125.518 55.2372 125.515 51.3705 125.515 47.5037C125.515 46.8034 125.419 46.1155 125.177 45.4551C124.538 43.7106 122.889 42.7493 120.926 42.8845C118.715 43.0349 117.053 44.4508 116.669 47.043C116.577 47.6665 116.54 48.293 116.54 48.9226C116.543 52.3072 116.537 55.6887 116.549 59.0733C116.549 59.3743 116.476 59.4449 116.181 59.4388C115.302 59.4173 114.424 59.4173 113.546 59.4388C113.245 59.4449 113.156 59.3743 113.156 59.0579C113.168 55.1789 113.165 51.3029 113.162 47.4238C113.162 46.4318 112.99 45.4766 112.452 44.6259C111.598 43.2776 110.309 42.7923 108.782 42.8967C106.362 43.0657 104.688 44.6382 104.304 47.0368C104.212 47.6143 104.166 48.1947 104.166 48.7813C104.169 52.2089 104.163 55.6365 104.175 59.0671C104.175 59.3896 104.077 59.448 103.785 59.4418C102.907 59.4234 102.028 59.4234 101.15 59.4418C100.858 59.448 100.778 59.3835 100.781 59.0794C100.791 53.3238 100.791 47.5682 100.791 41.8156C100.791 41.3549 100.803 40.8942 100.784 40.4335C100.775 40.2001 100.861 40.1602 101.07 40.1633C102.016 40.1725 102.962 40.1725 103.908 40.1633C104.111 40.1602 104.178 40.2063 104.175 40.4213C104.16 41.1461 104.169 41.8771 104.169 42.6879Z" fill="#141820"/>
<path d="M93.8885 43.3368C93.8885 42.3724 93.8947 41.4111 93.8855 40.4467C93.8824 40.2378 93.9254 40.1549 94.1588 40.158C95.1048 40.1733 96.0507 40.1703 96.9967 40.158C97.224 40.1549 97.2731 40.2286 97.2731 40.4436C97.267 46.6814 97.267 52.9192 97.2731 59.1601C97.2731 59.3874 97.2025 59.4396 96.9875 59.4365C96.0538 59.4242 95.1201 59.4242 94.1834 59.4365C93.95 59.4396 93.8793 59.3813 93.8824 59.1417C93.8978 58.1804 93.8885 57.2191 93.8885 56.1717C93.523 56.6509 93.2128 57.0686 92.8504 57.4463C91.3946 58.9605 89.5918 59.7222 87.5248 59.885C84.6931 60.1061 82.1899 59.3321 80.0984 57.3696C77.4847 54.9156 76.4957 51.8688 76.9472 48.3645C77.4325 44.596 79.4811 41.8748 82.9516 40.3975C85.7956 39.1874 88.6857 39.3502 91.4008 40.9565C92.402 41.5554 93.1729 42.4062 93.8885 43.3368ZM80.2243 49.7896C80.2243 53.7055 83.1513 56.657 87.018 56.6847C90.937 56.7123 93.8271 53.6256 93.9039 49.9616C93.9838 46.018 90.9432 42.8914 87.0395 42.9129C83.1635 42.9375 80.2243 45.8829 80.2243 49.7896Z" fill="#141820"/>
<path d="M180.895 56.156C180.364 56.9207 179.824 57.5473 179.182 58.0786C177.818 59.2089 176.23 59.7678 174.483 59.8938C171.663 60.0995 169.175 59.3194 167.093 57.363C164.679 55.0964 163.699 52.2923 163.868 49.0244C164.111 44.3345 167.729 40.5323 171.728 39.8474C174.412 39.3867 176.952 39.7306 179.154 41.4997C179.814 42.028 180.358 42.6668 180.895 43.45C180.895 42.4887 180.895 41.6287 180.895 40.7718C180.895 40.1668 180.895 40.1668 181.513 40.1668C182.324 40.1668 183.134 40.1791 183.945 40.1606C184.212 40.1545 184.28 40.2282 184.28 40.4923C184.271 45.3358 184.274 50.1823 184.274 55.0257C184.274 56.3986 184.268 57.7684 184.28 59.1413C184.283 59.3778 184.219 59.4423 183.979 59.4392C183.055 59.4269 182.133 59.4238 181.209 59.4392C180.966 59.4423 180.883 59.3931 180.886 59.129C180.905 58.1769 180.895 57.2217 180.895 56.156ZM167.228 49.7892C167.228 53.7081 170.152 56.6597 174.022 56.6842C177.941 56.7119 180.846 53.6252 180.908 49.9304C180.969 45.9961 177.929 42.8941 174.046 42.9156C170.164 42.9371 167.228 45.8794 167.228 49.7892Z" fill="#141820"/>
<path d="M147.954 56.1656C147.389 56.9733 146.808 57.6367 146.111 58.1896C144.714 59.2952 143.101 59.8266 141.341 59.9034C137.005 60.0938 133.915 58.1189 131.922 54.3535C131.049 52.7042 130.81 50.8983 130.939 49.0586C131.188 45.456 132.868 42.6488 136.01 40.9012C139.244 39.1045 142.564 39.1506 145.755 41.1561C146.636 41.709 147.306 42.5014 147.954 43.4381C147.954 42.8791 147.954 42.4123 147.954 41.9485C147.954 41.4325 147.96 40.9135 147.951 40.3975C147.948 40.2286 147.991 40.161 148.175 40.1641C149.155 40.1733 150.134 40.1733 151.111 40.1641C151.295 40.161 151.354 40.2286 151.332 40.3975C151.326 40.4405 151.332 40.4866 151.332 40.5327C151.332 46.7121 151.329 52.8946 151.338 59.0741C151.338 59.3597 151.286 59.4549 150.976 59.4457C150.064 59.4212 149.152 59.4273 148.243 59.4427C147.997 59.4457 147.945 59.369 147.948 59.1386C147.96 58.1804 147.954 57.2283 147.954 56.1656ZM147.954 49.8172C147.954 45.8829 145.027 42.9221 141.132 42.9191C137.235 42.916 134.287 45.8767 134.287 49.7988C134.287 53.7024 137.232 56.6785 141.096 56.6785C145.012 56.6785 147.954 53.7362 147.954 49.8172Z" fill="#141820"/>
<path d="M158.246 43.1703C158.722 42.4271 159.211 41.736 159.883 41.1924C161.09 40.2096 162.509 39.8718 164.026 39.8257C164.198 39.8196 164.263 39.8687 164.263 40.0499C164.257 41.0726 164.251 42.0954 164.266 43.1181C164.269 43.3823 164.115 43.3393 163.962 43.3393C162.841 43.3331 161.784 43.5727 160.795 44.1224C159.346 44.9271 158.599 46.1864 158.348 47.7865C158.271 48.2748 158.246 48.7693 158.246 49.2638C158.249 52.5347 158.243 55.8057 158.255 59.0766C158.255 59.3715 158.188 59.4544 157.887 59.4452C157.021 59.4237 156.152 59.4206 155.285 59.4452C154.957 59.4544 154.855 59.3868 154.855 59.0336C154.868 52.9309 154.865 46.8252 154.865 40.7225C154.865 40.6212 154.874 40.5198 154.862 40.4185C154.843 40.2372 154.895 40.1605 155.098 40.1635C156.066 40.1728 157.033 40.1758 158.004 40.1635C158.243 40.1605 158.246 40.2741 158.246 40.4492C158.243 41.3521 158.246 42.2612 158.246 43.1703Z" fill="#141820"/>
<path d="M36.293 49.7773C36.293 42.0776 42.6659 35.6801 50.5837 35.849C58.1637 36.0118 64.42 42.3079 64.2357 50.1428C64.0606 57.6337 57.9088 63.7364 50.3012 63.7487C42.5554 63.764 36.293 57.5047 36.293 49.7773ZM50.249 62.9532C57.5341 62.9532 63.4341 57.0747 63.4433 49.8326C63.4525 42.5936 57.6262 36.8256 50.6145 36.6444C43.1942 36.4509 37.0823 42.4369 37.0854 49.7712C37.0884 57.0686 42.9638 62.9532 50.249 62.9532Z" fill="#141820"/>
<path d="M50.2495 62.953C42.9644 62.953 37.089 57.0684 37.0859 49.7679C37.0829 42.4336 43.1978 36.4507 50.615 36.6411C57.6268 36.8223 63.4531 42.5903 63.4438 49.8293C63.4346 57.0745 57.5347 62.953 50.2495 62.953ZM53.8798 44.1105C52.2336 42.1971 50.182 41.6996 47.8754 42.0405C45.7071 42.3599 44.1346 43.6161 42.9828 45.4066C41.8157 47.2187 41.5731 49.2243 41.8864 51.322C42.3471 54.3963 45.0437 57.4984 48.6033 57.6519C50.2833 57.7256 51.8435 57.3816 53.1488 56.2391C53.3915 56.0272 53.6126 55.7938 53.8798 55.5327C53.8798 56.0241 53.8921 56.4818 53.8737 56.9363C53.8645 57.1697 53.9259 57.2373 54.1654 57.2342C55.2465 57.2219 56.3276 57.2189 57.4057 57.2373C57.6729 57.2404 57.7097 57.1544 57.7097 56.9179C57.7005 54.6267 57.7036 52.3324 57.7036 50.0412C57.7036 47.5811 57.7036 45.1179 57.7036 42.6578C57.7036 42.5043 57.7435 42.3599 57.4794 42.363C56.3553 42.3783 55.2281 42.3753 54.104 42.366C53.8952 42.363 53.8706 42.449 53.8737 42.624C53.886 43.0909 53.8798 43.5577 53.8798 44.1105Z" fill="#141820"/>
<path d="M49.7361 45.585C52.2023 45.5973 53.8916 47.3572 53.8793 49.9033C53.867 52.2928 52.0918 54.028 49.7023 54.0219C47.2575 54.0127 45.5069 52.1361 45.5929 49.5992C45.6666 47.308 47.4019 45.5727 49.7361 45.585Z" fill="#141820"/>
</svg>
