<svg width="214" height="99" viewBox="0 0 214 99" fill="none" xmlns="http://www.w3.org/2000/svg">
<rect x="214" width="99" height="214" rx="16" transform="rotate(90 214 0)" fill="white" fill-opacity="0.35"/>
<rect x="12" y="87" width="75" height="190" rx="12" transform="rotate(-90 12 87)" fill="white" fill-opacity="0.3"/>
<path d="M66.9346 54.4743C66.784 53.4381 66.0039 52.9381 65.2478 52.429C64.4797 51.9109 63.6845 51.423 63.1152 50.6729C62.308 49.6127 61.9977 48.4379 62.558 47.1758C63.3592 45.3715 65.8232 44.8625 67.4166 46.2029C67.9015 46.6095 68.2088 46.6848 68.7962 46.4107C70.0703 45.8113 71.4107 46.1788 72.3776 47.2752C73.6668 48.7361 74.0012 50.441 73.4439 52.2694C72.5583 55.1611 70.6667 57.1551 67.7359 57.9955C65.7509 58.5648 63.796 58.2545 61.9857 57.2455C59.0608 55.6129 57.1451 53.1911 56.5608 49.8717C55.7113 45.0492 57.7235 40.5189 62.4254 38.3321C67.0732 36.1694 71.5704 36.6754 75.6308 39.8201C78.0555 41.6967 79.3447 44.3233 79.5255 47.3746C79.8417 52.7061 77.3868 56.5497 72.8415 59.1642C71.3083 60.0468 69.6064 60.4715 67.9076 60.8992C66.8834 61.1583 65.8563 61.4053 64.8743 61.8089C64.537 61.9475 64.2177 62.1191 63.9285 62.342C63.7508 62.4806 63.6092 62.6463 63.5219 62.8541C63.4496 63.0288 63.4315 63.1915 63.6032 63.327C63.7839 63.4686 63.8562 63.2848 63.9556 63.2095C65.1816 62.3089 66.5762 61.83 68.0552 61.5619C68.9829 61.3932 69.9167 61.333 70.8444 61.5619C71.236 61.6583 71.5945 61.824 71.8836 62.1101C72.6367 62.8511 72.477 63.9686 71.5342 64.5469C70.8866 64.9445 70.1607 65.1373 69.4227 65.2668C67.6214 65.5801 65.8262 65.5922 64.052 65.0801C63.9104 65.0379 63.8653 65.0861 63.8261 65.2217C63.7628 65.4295 63.811 65.6163 63.8773 65.8C63.9526 66.0078 64.0791 66.1886 64.2207 66.3603C64.6755 66.9085 64.7328 66.9115 65.3292 66.5771C66.6093 65.8602 67.9648 65.5199 69.4257 65.8633C70.0372 66.0078 70.5432 66.3362 70.8505 66.9055C71.2029 67.5591 71.0221 68.0832 70.3414 68.3874C69.736 68.6585 69.0853 68.7097 68.4347 68.7188C67.2298 68.7338 66.0611 68.5561 64.9617 68.0441C64.808 67.9718 64.7237 68.0079 64.6183 68.1073C64.2508 68.4477 64.0761 68.8483 64.2207 69.3513C64.2448 69.4357 64.2629 69.52 64.2357 69.6074C63.7207 69.0802 63.6454 68.4989 64.0309 67.8212C64.1303 67.6465 64.1092 67.5802 63.9556 67.4597C63.2688 66.9024 62.7236 66.2548 62.7236 65.306C62.7236 64.5921 62.7176 64.6012 62.3381 64.0108C61.8682 63.2818 61.9977 62.5589 62.4285 61.8691C62.8983 61.1221 63.6303 60.6914 64.4014 60.3149C65.6725 59.6974 67.022 59.2937 68.3594 58.863C70.5221 58.1642 72.465 57.1039 74.0735 55.4834C75.953 53.5887 76.9922 51.3145 77.0163 48.6277C77.0465 45.004 74.7753 41.7961 71.3294 40.6605C68.2238 39.6394 65.2267 39.8653 62.5218 41.8292C60.5007 43.2992 59.3982 45.3504 59.0036 47.8114C58.362 51.8115 61.0037 55.3056 63.7026 56.6792C65.3352 57.5105 66.9889 57.4864 68.5853 56.631C70.7721 55.4562 72.0041 53.5977 72.1939 51.1157C72.2812 49.9982 71.8475 49.0223 71.0884 48.203C70.5342 47.6035 69.7811 47.465 69.0341 47.7813C68.8594 47.8566 68.8413 47.9138 68.9227 48.0855C69.2389 48.7482 69.3865 49.4349 69.1516 50.1639C68.8413 51.1217 68.007 51.6609 67.1395 51.4561C66.3473 51.2693 65.8834 50.5826 66.0009 49.7753C66.1153 48.9861 66.4919 48.3234 67.0069 47.7331C67.1425 47.5794 67.1545 47.4891 66.9949 47.3445C66.4376 46.8385 65.8021 46.5463 65.04 46.6457C63.7267 46.8174 63.0128 47.965 63.3592 49.3024C63.57 50.1157 64.0701 50.7302 64.6755 51.2784C65.1575 51.7151 65.6605 52.1278 66.1274 52.5796C66.6304 53.0646 67.0069 53.6279 66.9678 54.3749C66.9527 54.396 66.9407 54.4351 66.9346 54.4743ZM65.4768 63.7939C67.1606 63.8602 68.8203 63.7638 70.4167 63.1433C68.6937 62.7607 67.0672 63.1252 65.4768 63.7939ZM67.9106 48.5162C67.4859 48.9018 67.1816 49.3355 67.0461 49.8747C66.9949 50.0795 67.013 50.2693 67.2268 50.3898C67.4286 50.5043 67.6244 50.5073 67.8142 50.3687C67.9919 50.2392 68.0883 50.0585 68.1546 49.8566C68.3082 49.3777 68.1365 48.959 67.9106 48.5162ZM65.9828 67.4085C67.1877 67.6826 68.3172 67.6675 69.4588 67.3603C69.0431 66.8482 66.9617 66.9567 65.9828 67.4085Z" fill="#141820"/>
<path d="M109.262 46.4642C109.313 45.7473 109.379 45.0274 109.415 44.3044C109.605 40.4971 109.635 36.6867 109.623 32.8733C109.623 32.6625 109.683 32.5239 109.849 32.4004C110.572 31.8642 111.355 31.9124 112.102 32.2679C113.123 32.7558 113.711 33.5902 113.72 34.7529C113.732 35.9909 113.527 37.2108 113.31 38.4247C112.958 40.3917 112.846 42.3797 112.765 44.3707C112.656 47.0425 112.536 49.7143 112.437 52.3891C112.343 54.8862 112.199 57.3832 112.211 59.8833C112.22 61.8111 112.301 63.7359 112.795 65.6155C112.87 65.9016 112.949 66.1938 113.078 66.4559C113.187 66.6788 113.153 66.8324 113.015 67.0161C112.56 67.6397 111.885 67.8385 111.177 67.5282C110.62 67.2842 110.162 66.9107 109.81 66.4167C109.632 66.1697 109.545 65.9046 109.533 65.5884C109.515 65.0221 109.445 64.4558 109.391 63.8082C108.918 64.3172 108.5 64.763 108.033 65.1606C107.153 65.9137 106.207 66.5703 105.048 66.7752C102.692 67.1908 99.9632 66.3685 98.4662 63.6485C97.7402 62.3292 97.4149 60.9015 97.3637 59.4104C97.2251 55.2988 98.1137 51.3951 99.8246 47.669C100.267 46.7051 100.849 45.8166 101.644 45.0966C103.129 43.7472 104.9 43.5454 106.68 44.4882C107.581 44.9641 108.286 45.681 109.039 46.3407C109.087 46.3828 109.141 46.422 109.192 46.4612C109.192 46.4702 109.208 46.4642 109.262 46.4642ZM109.183 53.2897C109.208 52.4945 109.162 51.7023 108.954 50.9312C108.653 49.8107 108.195 48.7685 107.277 48.0034C106.132 47.0485 104.698 47.169 103.722 48.2805C103.4 48.648 103.129 49.0516 102.93 49.4914C101.487 52.7084 100.722 56.0699 100.804 59.6032C100.828 60.6575 101.026 61.6816 101.472 62.6425C101.921 63.6034 102.578 64.3172 103.728 64.3624C104.623 64.3986 105.388 64.0793 106.039 63.4768C106.656 62.9076 107.096 62.2087 107.436 61.4527C108.608 58.8592 109.126 56.1242 109.183 53.2897Z" fill="#141820"/>
<path d="M161.865 65.2332C160.705 65.9712 159.525 66.4923 158.235 66.7423C155.262 67.3237 152.594 66.6821 150.362 64.6127C148.889 63.2452 148.771 61.2753 149.955 59.6457C150.904 58.3384 152.217 57.4739 153.615 56.7209C154.862 56.0522 156.19 55.7239 157.615 55.76C158.874 55.7901 160.133 55.751 161.389 55.7781C161.763 55.7871 161.808 55.6064 161.811 55.3293C161.823 54.4045 161.79 53.4798 161.699 52.5581C161.612 51.6665 161.48 50.7899 161.148 49.9526C160.591 48.5459 159.579 47.829 158.178 47.8682C157.269 47.8922 156.561 48.3531 155.976 48.9977C154.832 50.2538 154.042 51.6936 153.829 53.4045C153.786 53.7419 153.805 54.0852 153.798 54.4286C153.786 55.004 153.386 55.3413 152.817 55.2509C151.795 55.0883 150.786 53.9075 150.907 52.8924C151.193 50.4586 152.064 48.2447 153.636 46.35C154.576 45.2174 155.859 44.8078 157.326 44.868C159.672 44.9674 161.66 45.8771 163.317 47.5067C164.534 48.7055 165.13 50.1755 165.133 51.8984C165.139 55.016 165.178 58.1366 165.206 61.2542C165.221 62.9741 165.245 64.6911 165.26 66.411C165.266 66.9683 165.028 67.2996 164.492 67.4653C163.971 67.6279 163.452 67.6008 162.931 67.4351C162.392 67.2634 161.796 66.5074 161.865 65.8809C161.883 65.6881 161.865 65.4893 161.865 65.2332ZM156.377 64.0856C158.064 64.0615 159.494 63.4139 160.714 62.2753C161.305 61.7271 161.651 61.0403 161.781 60.2421C161.958 59.1457 161.564 58.5011 160.461 58.3203C158.449 57.992 156.515 58.2661 154.705 59.236C154.121 59.5493 153.636 59.9891 153.374 60.6096C152.829 61.9078 153.085 63.0585 154.455 63.688C155.067 63.9712 155.705 64.0977 156.377 64.0856Z" fill="#141820"/>
<path d="M144.182 65.2306C143.022 65.9716 141.838 66.4837 140.552 66.7457C137.784 67.303 135.266 66.7397 133.061 64.9776C131.142 63.4444 130.922 61.119 132.558 59.2876C134.157 57.4954 136.139 56.2845 138.54 55.8417C138.862 55.7815 139.2 55.7724 139.528 55.7724C140.887 55.7664 142.245 55.7694 143.601 55.7694C144.119 55.7694 144.119 55.7694 144.125 55.2302C144.137 54.2272 144.092 53.2241 143.98 52.2301C143.884 51.3777 143.706 50.5403 143.372 49.7391C142.531 47.739 140.094 47.2088 138.549 48.745C137.037 50.2481 136.061 52.0283 136.124 54.2272C136.155 55.2061 135.414 55.4531 134.688 55.1158C133.612 54.6188 133.076 53.685 133.26 52.4982C133.588 50.3656 134.377 48.4077 135.667 46.6757C136.636 45.3714 137.974 44.8051 139.606 44.8714C141.817 44.9588 143.715 45.7751 145.345 47.239C146.727 48.483 147.441 50.0282 147.447 51.9048C147.456 55.1007 147.492 58.2966 147.519 61.4925C147.534 63.1221 147.559 64.7547 147.574 66.3843C147.58 67.0108 147.263 67.3903 146.646 67.5168C146.116 67.6253 145.586 67.6162 145.098 67.3662C144.513 67.068 144.206 66.577 144.188 65.9174C144.176 65.7065 144.182 65.4987 144.182 65.2306ZM138.664 64.086C140.402 64.0619 141.866 63.3932 143.104 62.2004C143.564 61.7576 143.863 61.2094 144.025 60.5889C144.378 59.2304 143.953 58.4653 142.607 58.2815C140.7 58.0195 138.853 58.2755 137.124 59.1731C136.609 59.4412 136.158 59.7936 135.856 60.2997C135.191 61.4051 135.127 62.9805 136.805 63.7095C137.399 63.9655 138.016 64.095 138.664 64.086Z" fill="#141820"/>
<path d="M122.668 66.8931C120.689 66.869 119.252 66.5708 118.017 65.625C116.749 64.6551 116.089 63.3086 115.713 61.8025C115.261 59.9862 115.225 58.1398 115.394 56.2903C115.641 53.5703 116.261 50.9347 117.294 48.4015C117.665 47.4918 118.129 46.6333 118.746 45.8622C119.84 44.5007 121.225 44.082 122.903 44.5248C124.614 44.9766 126.008 45.9556 127.304 47.1062C128.156 47.8653 128.906 48.7117 129.418 49.7479C130.189 51.3082 130.054 52.8926 129.469 54.4559C128.334 57.5012 124.909 59.8386 121.656 59.8416C121.183 59.8416 120.782 59.6428 120.376 59.4531C119.957 59.2603 119.556 59.0253 119.111 58.8928C118.849 58.8145 118.752 58.8777 118.764 59.1609C118.812 60.2874 118.909 61.4049 119.421 62.4351C119.942 63.4894 120.779 64.0165 121.981 64.0255C123.548 64.0346 124.807 63.3839 125.912 62.3447C126.59 61.7062 127.144 60.9652 127.713 60.2362C127.828 60.0886 127.957 59.9501 128.075 59.8085C128.457 59.3506 128.906 59.0946 129.524 59.3175C130.12 59.5314 130.406 59.9742 130.491 60.5796C130.662 61.8206 130.235 62.8869 129.376 63.7303C127.394 65.6732 125.014 66.7696 122.668 66.8931ZM122.159 56.9259C123.087 56.9259 123.822 56.6578 124.52 56.0614C126.632 54.2571 126.894 50.7359 125.069 48.6454C124.749 48.281 124.373 48.0069 123.906 47.8653C122.791 47.5279 121.716 47.9075 120.945 48.9918C119.818 50.5732 119.294 52.3624 119.373 54.2962C119.43 55.8385 120.626 56.9259 122.159 56.9259Z" fill="#141820"/>
<path d="M94.7968 46.9732C94.7275 48.1269 94.4383 49.1571 94.2184 50.2023C94.0648 50.9372 93.9654 51.6752 93.9654 52.4283C93.9744 55.7898 93.9774 59.1514 93.9654 62.513C93.9624 63.5251 94.1582 64.501 94.3931 65.4769C94.5257 66.0251 94.1762 66.5553 93.61 66.5854C92.0768 66.6607 90.6791 66.0251 90.6731 63.9949C90.658 57.9676 90.6671 51.9403 90.6641 45.9099C90.6641 45.7202 90.7213 45.6238 90.887 45.5334C92.137 44.8587 93.2877 45.1238 94.4022 45.934C94.7787 46.1991 94.86 46.6118 94.7968 46.9732Z" fill="#141820"/>
<path d="M92.9027 36.7168C94.8064 36.7168 96.1137 38.3554 95.6438 40.1597C95.4239 41.0031 94.8486 41.4278 93.8304 41.4971C92.5141 41.5875 91.0562 40.47 90.8544 39.1717C90.6677 37.9699 91.1406 36.7319 92.9027 36.7168Z" fill="#141820"/>
<path d="M61.0767 30.0118C61.2966 30.0239 61.5316 30.1504 61.6701 30.4155C62.3208 31.6896 62.8991 32.9908 63.2696 34.3764C63.3148 34.5451 63.3208 34.7228 63.3509 34.8975C63.375 35.0451 63.3871 35.1957 63.2304 35.2711C63.0738 35.3464 62.9503 35.2409 62.8509 35.1385C62.6521 34.9337 62.4382 34.7379 62.2756 34.503C61.5286 33.4397 60.8629 32.3282 60.3116 31.1504C60.0436 30.5871 60.405 30.0028 61.0767 30.0118Z" fill="#141820"/>
<path d="M52.3402 36.362C52.5029 36.35 52.6505 36.4042 52.774 36.4946C54.2138 37.5066 55.6626 38.5097 56.9488 39.7176C57.0663 39.829 57.2982 39.9435 57.1868 40.1363C57.0663 40.3441 56.8494 40.1995 56.6838 40.1363C55.009 39.5157 53.4608 38.6392 51.9065 37.7777C51.6023 37.6091 51.4938 37.2145 51.6053 36.8771C51.7047 36.5759 52.0089 36.365 52.3402 36.362Z" fill="#141820"/>
<path d="M74.0922 30C74.6525 30 75.0471 30.5543 74.797 31.0573C74.0651 32.5272 73.2066 33.9219 72.1494 35.187C72.065 35.2864 71.9686 35.3587 71.8361 35.2984C71.6584 35.2171 71.7096 35.0575 71.7397 34.9219C71.9626 33.9339 72.306 32.9821 72.6855 32.0453C72.9024 31.5061 73.1434 30.976 73.3843 30.4458C73.5199 30.1537 73.7609 29.997 74.0922 30Z" fill="#141820"/>
<path d="M82.0222 36.2051C82.4138 36.2051 82.6548 36.3708 82.7843 36.6871C82.9229 37.0304 82.8355 37.3618 82.5162 37.5937C82.1427 37.8678 81.7572 38.1239 81.3686 38.3709C80.4198 38.9673 79.489 39.5998 78.4679 40.0697C78.3775 40.1119 78.2871 40.154 78.1938 40.1872C78.0944 40.2233 77.9829 40.2986 77.8986 40.1721C77.8263 40.0667 77.8775 39.9613 77.9408 39.8679C78.1757 39.5335 78.4528 39.2323 78.745 38.9492C79.6125 38.1028 80.4981 37.2744 81.4228 36.4913C81.6066 36.3346 81.7963 36.184 82.0222 36.2051Z" fill="#141820"/>
<path d="M82.0641 48.1423C81.9858 48.1393 81.9105 48.1333 81.8322 48.1303C81.7268 48.1303 81.6334 48.1092 81.5882 48.0008C81.54 47.8833 81.5852 47.7869 81.6635 47.7025C81.8623 47.4917 82.0912 47.323 82.3473 47.1905C83.4678 46.6061 84.6154 46.079 85.8113 45.6603C86.3565 45.4705 86.8083 45.7928 86.7631 46.326C86.745 46.5368 86.6577 46.7266 86.4649 46.8079C85.0492 47.4224 83.5853 47.8803 82.0641 48.1423Z" fill="#141820"/>
<path d="M52.5424 47.6541C51.4791 47.5969 50.5905 47.5306 49.7079 47.395C49.2893 47.3318 49.0453 47.133 49.0061 46.8137C48.9519 46.38 49.2651 46.0034 49.6989 46.0486C51.0032 46.1872 52.2863 46.4372 53.5424 46.8197C53.7081 46.8709 53.8557 46.9764 54.0123 47.0577C54.1268 47.1179 54.2081 47.2023 54.181 47.3469C54.1569 47.4734 54.0515 47.5095 53.946 47.5457C53.4279 47.7234 52.8948 47.6541 52.5424 47.6541Z" fill="#141820"/>
<path d="M65.4766 63.7933C67.067 63.1246 68.6936 62.7601 70.4165 63.1427C68.8201 63.7602 67.1604 63.8596 65.4766 63.7933Z" fill="#141820"/>
<path d="M67.9105 48.5156C68.1364 48.9554 68.3111 49.3741 68.1515 49.856C68.0852 50.0579 67.9888 50.2416 67.8111 50.3681C67.6183 50.5067 67.4255 50.5067 67.2237 50.3892C67.0129 50.2687 66.9918 50.0759 67.043 49.8741C67.1815 49.3349 67.4858 48.9012 67.9105 48.5156Z" fill="#141820"/>
<path d="M65.9824 67.4082C66.9614 66.9564 69.0428 66.8509 69.4584 67.36C68.3168 67.6672 67.1873 67.6793 65.9824 67.4082Z" fill="#141820"/>
</svg>
