<svg width="214" height="99" viewBox="0 0 214 99" fill="none" xmlns="http://www.w3.org/2000/svg">
<rect x="214" width="99" height="214" rx="16" transform="rotate(90 214 0)" fill="white" fill-opacity="0.35"/>
<rect x="12" y="87" width="75" height="190" rx="12" transform="rotate(-90 12 87)" fill="white" fill-opacity="0.3"/>
<path d="M69.3618 30.0303C69.1013 30.8846 68.8408 31.7359 68.5802 32.5902C67.2564 36.9223 65.9325 41.2544 64.5996 45.5865C64.5268 45.8258 64.539 45.8925 64.8147 45.9228C66.2264 46.0803 67.632 46.2651 69.0407 46.4317C69.2013 46.4499 69.2952 46.5104 69.38 46.6468C70.4373 48.3978 71.4946 50.1518 72.567 51.8938C72.6942 52.0998 72.567 52.1937 72.4701 52.3149C70.5403 54.7324 68.6105 57.1499 66.6808 59.5674C64.0936 62.8058 61.5095 66.0473 58.9194 69.2858C58.8285 69.4009 58.7649 69.5554 58.5498 69.6069C58.6952 69.1313 58.8285 68.689 58.9678 68.2467C60.4523 63.4541 61.9336 58.6646 63.4272 53.875C63.509 53.6175 63.4817 53.5509 63.206 53.5206C61.8276 53.3661 60.4553 53.1843 59.0799 53.0238C58.8618 52.9995 58.7285 52.9298 58.6104 52.7329C57.5864 51.0243 56.5503 49.3248 55.5082 47.6253C55.3931 47.4375 55.3991 47.3223 55.5415 47.1406C60.0524 41.521 64.5541 35.8983 69.0559 30.2726C69.1316 30.1787 69.2104 30.0909 69.2891 30C69.3164 30.0151 69.3376 30.0212 69.3618 30.0303Z" fill="#141820"/>
<path d="M61.4707 67.6015C62.5583 66.2383 63.6216 64.9083 64.6819 63.5723C64.8091 63.4118 64.9788 63.4421 65.1363 63.43C67.2933 63.2482 69.3109 62.6211 71.1346 61.4608C74.9547 59.0342 77.1753 55.5776 77.6085 51.0608C78.2053 44.8504 74.47 39.0642 68.5747 36.9738C68.3293 36.886 68.2536 36.8103 68.3415 36.5406C68.7171 35.3743 69.0746 34.1989 69.4169 33.0235C69.4957 32.7569 69.5957 32.7205 69.8471 32.8114C74.3064 34.4049 77.7055 37.2586 79.9261 41.4332C83.5462 48.2464 82.4405 56.4592 77.1511 62.1C74.1822 65.2688 70.5105 67.1229 66.1875 67.6682C64.6607 67.859 63.1339 67.8317 61.61 67.6439C61.5798 67.6439 61.5525 67.6288 61.4707 67.6015Z" fill="#141820"/>
<path d="M66.4574 32.0231C65.9787 32.623 65.5334 33.1834 65.0881 33.7408C64.4852 34.4952 63.8793 35.2434 63.2825 36.0008C63.1644 36.1523 63.0341 36.225 62.8432 36.2432C56.8056 36.8127 51.9433 41.0176 50.677 46.9492C49.6985 51.5327 50.8709 55.6134 54.0185 59.0973C55.515 60.7544 57.3509 61.9298 59.4563 62.6781C59.632 62.7417 59.6926 62.7932 59.626 62.9962C59.2352 64.217 58.8565 65.4409 58.4899 66.6679C58.4203 66.9011 58.3203 66.8829 58.1385 66.8163C53.6701 65.2077 50.2953 62.3236 48.0656 58.1339C46.3752 54.9591 45.7026 51.5509 46.1207 47.9883C46.8538 41.7083 50.0529 37.0157 55.5817 33.9559C58.7717 32.1898 62.2343 31.593 65.8606 31.9383C66.0363 31.9595 66.212 31.9898 66.4574 32.0231Z" fill="#141820"/>
<path d="M161.851 58.9977C160.442 58.9977 159.058 58.9947 157.67 59.0007C157.446 59.0007 157.461 58.8402 157.422 58.719C156.979 57.3285 156.534 55.941 156.113 54.5444C156.04 54.3021 155.934 54.2445 155.698 54.2445C153.623 54.2536 151.548 54.2536 149.469 54.2445C149.242 54.2445 149.145 54.3021 149.076 54.5232C148.645 55.9289 148.194 57.3285 147.764 58.7311C147.703 58.9341 147.618 59.0007 147.4 59.0007C146.104 58.9886 144.804 58.9947 143.459 58.9947C143.644 58.4554 143.816 57.9465 143.992 57.4375C146.037 51.5513 148.082 45.6682 150.118 39.782C150.209 39.5214 150.318 39.4336 150.599 39.4366C151.999 39.4548 153.396 39.4487 154.795 39.4396C155.001 39.4396 155.098 39.4881 155.171 39.6971C157.373 46.0408 159.582 52.3844 161.79 58.7251C161.814 58.8099 161.826 58.8977 161.851 58.9977ZM152.587 43.1719C152.55 43.2416 152.52 43.287 152.505 43.3385C151.714 45.8681 150.93 48.4007 150.13 50.9273C150.048 51.1817 150.154 51.1696 150.336 51.1696C151.832 51.1666 153.332 51.1636 154.828 51.1727C155.074 51.1727 155.122 51.1363 155.041 50.8818C154.301 48.5552 153.577 46.2256 152.847 43.8959C152.771 43.6597 152.732 43.4082 152.587 43.1719Z" fill="#141820"/>
<path d="M115.88 47.7499C115.88 47.2318 115.877 46.7168 115.88 46.1988C115.883 45.7807 115.895 45.3596 115.904 44.9416C116.331 44.8658 116.762 44.9264 117.189 44.9082C117.243 44.9052 117.301 44.9143 117.355 44.9052C117.543 44.8779 117.601 44.9507 117.595 45.1385C117.58 45.5141 117.592 45.8928 117.592 46.2685C117.592 50.4036 117.592 54.5388 117.592 58.674C117.592 61.5278 115.907 63.5514 113.084 64.0574C111.372 64.3633 109.7 64.2634 108.131 63.4484C106.934 62.8244 106.059 61.9125 105.695 60.5705C105.634 60.3493 105.644 60.2584 105.913 60.2705C106.38 60.2918 106.846 60.2766 107.313 60.2766C107.41 60.2766 107.501 60.2584 107.555 60.3857C108.116 61.7307 109.23 62.3366 110.585 62.5729C111.596 62.7486 112.599 62.6729 113.553 62.27C114.971 61.6701 115.704 60.5674 115.774 59.0497C115.819 58.0651 115.783 57.0775 115.783 56.0021C115.489 56.5928 115.189 57.0866 114.786 57.5077C112.348 60.0343 108.094 59.5768 106.192 56.5807C105.219 55.0478 104.938 53.3392 104.983 51.5579C105.019 50.2037 105.289 48.9041 105.919 47.6923C107.734 44.2024 112.018 43.96 114.25 45.7686C114.586 46.0413 114.892 46.3442 115.159 46.6896C115.414 47.0198 115.626 47.3803 115.88 47.7499ZM115.786 52.0214C115.783 50.8762 115.632 49.8402 115.171 48.8738C114.399 47.247 113.138 46.2927 111.296 46.2776C109.47 46.2624 108.182 47.1712 107.47 48.8041C106.574 50.8581 106.574 52.9666 107.473 55.0236C108.155 56.5807 109.394 57.4713 111.121 57.5259C112.82 57.5774 114.108 56.814 114.959 55.3507C115.568 54.2995 115.771 53.1392 115.786 52.0214Z" fill="#141820"/>
<path d="M167.944 49.2307C167.944 52.3783 167.941 55.5259 167.95 58.6765C167.95 58.931 167.895 59.0097 167.629 59.0067C166.474 58.9916 165.32 58.9946 164.166 59.0037C163.936 59.0067 163.842 58.9734 163.842 58.7038C163.851 52.3753 163.851 46.0437 163.845 39.7152C163.845 39.4941 163.908 39.4426 164.124 39.4426C165.299 39.4517 166.477 39.4577 167.653 39.4395C167.913 39.4365 167.953 39.5153 167.953 39.7516C167.944 42.9143 167.944 46.071 167.944 49.2307Z" fill="#141820"/>
<path d="M122.611 47.3551C123.008 46.6947 123.447 46.113 124.05 45.6586C126.107 44.1166 129.497 44.3863 131.106 46.2342C131.984 47.243 132.327 48.4518 132.333 49.7605C132.345 52.7324 132.333 55.7012 132.342 58.6731C132.342 58.9276 132.287 59.0215 132.015 59.0064C131.606 58.9821 131.194 58.9882 130.782 59.0033C130.56 59.0124 130.503 58.9427 130.506 58.7246C130.515 57.3947 130.512 56.0648 130.512 54.7348C130.512 53.1383 130.548 51.5418 130.503 49.9453C130.427 47.2279 128.54 45.9858 126.065 46.3433C124.05 46.6341 122.738 48.1185 122.645 50.1543C122.548 52.281 122.623 54.4107 122.608 56.5374C122.602 57.2584 122.599 57.9794 122.611 58.7004C122.614 58.9185 122.575 59.0185 122.326 59.0064C121.884 58.9852 121.439 58.9943 120.994 59.0033C120.839 59.0064 120.76 58.9639 120.781 58.8004C120.788 58.7458 120.781 58.6883 120.781 58.6337C120.781 52.3598 120.784 46.0858 120.775 39.8118C120.775 39.5361 120.812 39.415 121.127 39.4422C121.512 39.4756 121.905 39.4695 122.29 39.4422C122.569 39.421 122.608 39.5301 122.608 39.7755C122.599 42.1808 122.602 44.5862 122.602 46.9916C122.611 47.1128 122.611 47.234 122.611 47.3551Z" fill="#141820"/>
<path d="M86.6038 49.1946C86.6038 46.0561 86.6069 42.9206 86.5978 39.7821C86.5978 39.5065 86.6584 39.4247 86.9371 39.4428C87.3582 39.4701 87.7792 39.461 88.2034 39.4459C88.4033 39.4398 88.473 39.4852 88.4669 39.7003C88.4518 40.2638 88.4609 40.8303 88.4609 41.3968C88.4609 46.5742 88.4639 51.7515 88.4518 56.9288C88.4518 57.2347 88.5336 57.3014 88.8305 57.3014C91.8266 57.2893 94.8257 57.2953 97.8218 57.2953C98.252 57.2953 98.252 57.2953 98.252 57.7437C98.252 58.0315 98.2217 58.3223 98.2581 58.6071C98.3035 58.9646 98.1551 59.0191 97.837 59.013C96.6616 58.9949 95.4831 59.007 94.3077 59.007C91.8781 59.007 89.4454 58.9979 87.0158 59.0161C86.6523 59.0191 86.5947 58.907 86.5978 58.5798C86.6069 55.4474 86.6038 52.321 86.6038 49.1946Z" fill="#141820"/>
<path d="M136.101 51.3944C136.101 49.8312 136.095 48.268 136.107 46.7048C136.11 46.4564 136.049 46.3867 135.798 46.3988C135.289 46.42 134.777 46.3988 134.265 46.4079C134.071 46.411 133.983 46.3746 133.995 46.1565C134.013 45.8142 134.01 45.4688 133.995 45.1265C133.989 44.9508 134.047 44.8993 134.219 44.9023C134.762 44.9114 135.307 44.8932 135.852 44.9114C136.067 44.9174 136.104 44.8478 136.104 44.6509C136.095 43.6542 136.107 42.6545 136.092 41.6578C136.089 41.4184 136.158 41.3639 136.385 41.373C136.807 41.3912 137.231 41.3912 137.652 41.373C137.867 41.3639 137.906 41.4336 137.903 41.6335C137.894 42.6302 137.906 43.6299 137.891 44.6266C137.888 44.8659 137.958 44.9174 138.185 44.9114C138.927 44.8962 139.672 44.9144 140.415 44.8993C140.636 44.8962 140.702 44.9599 140.687 45.175C140.669 45.4718 140.666 45.7748 140.687 46.0717C140.705 46.3231 140.639 46.417 140.366 46.4079C139.624 46.3867 138.879 46.4079 138.136 46.3958C137.955 46.3928 137.891 46.4352 137.894 46.6291C137.9 49.5767 137.897 52.5274 137.9 55.4751C137.9 55.7507 137.93 56.0294 138 56.296C138.194 57.0322 138.655 57.426 139.415 57.4715C139.791 57.4927 140.169 57.4775 140.545 57.4624C140.702 57.4563 140.76 57.4927 140.754 57.6593C140.742 58.0349 140.748 58.4136 140.751 58.7893C140.751 58.9074 140.751 58.9953 140.587 59.0104C139.824 59.0831 139.057 59.1255 138.3 58.9771C137.025 58.7256 136.34 57.9471 136.167 56.602C136.119 56.2294 136.095 55.8537 136.095 55.4751C136.104 54.1209 136.101 52.7577 136.101 51.3944Z" fill="#141820"/>
<path d="M100.668 51.927C100.668 49.6883 100.671 47.4495 100.662 45.2077C100.662 44.9624 100.717 44.8836 100.971 44.8957C101.38 44.92 101.792 44.9139 102.204 44.8957C102.434 44.8866 102.504 44.9472 102.501 45.1835C102.489 46.4135 102.495 47.6434 102.495 48.8764C102.495 52.1361 102.492 55.3958 102.501 58.6554C102.501 58.9281 102.44 59.022 102.159 59.0069C101.762 58.9826 101.359 58.9857 100.959 59.0069C100.726 59.019 100.662 58.9463 100.662 58.713C100.671 56.45 100.668 54.187 100.668 51.927Z" fill="#141820"/>
<path d="M102.792 40.8631C102.795 41.5327 102.274 42.0628 101.605 42.078C100.947 42.0901 100.393 41.5538 100.387 40.8934C100.378 40.23 100.911 39.6877 101.577 39.6847C102.25 39.6756 102.789 40.1997 102.792 40.8631Z" fill="#141820"/>
</svg>
