<svg width="214" height="99" viewBox="0 0 214 99" fill="none" xmlns="http://www.w3.org/2000/svg">
<rect x="214" width="99" height="214" rx="16" transform="rotate(90 214 0)" fill="white" fill-opacity="0.35"/>
<rect x="12" y="87" width="75" height="190" rx="12" transform="rotate(-90 12 87)" fill="white" fill-opacity="0.3"/>
<path d="M57.3334 30C57.7689 30.1442 58.2285 30.1262 58.6731 30.1923C62.0104 30.6879 65.0262 31.9465 67.7297 33.9591C67.8769 34.0702 67.8919 34.1333 67.7687 34.2805C66.5762 35.6773 65.3927 37.0771 64.2152 38.4859C64.083 38.6451 64.0109 38.6421 63.8517 38.5279C62.0344 37.2243 60.0158 36.4042 57.805 36.0888C55.0925 35.7013 52.4641 36.0438 49.995 37.2393C45.5493 39.3961 42.8788 42.9376 42.0978 47.8129C41.1877 53.4992 44.1344 59.3386 49.3071 61.988C54.2845 64.5383 59.1537 64.1748 63.8097 61.0809C64.0139 60.9457 64.092 60.9577 64.2452 61.141C65.4077 62.5347 66.5762 63.9195 67.7537 65.2983C67.8979 65.4665 67.8529 65.5326 67.6997 65.6467C65.3597 67.392 62.7613 68.5875 59.9017 69.1672C55.5881 70.0444 51.3887 69.6328 47.4207 67.7194C41.4971 64.8597 37.8173 60.1767 36.3905 53.7485C36.2343 53.0396 36.1442 52.3216 36.0691 51.6007C36.0631 51.5436 36.0961 51.4625 36 51.4415C36 50.3421 36 49.2427 36 48.1433C36.0931 48.1192 36.0601 48.0412 36.0691 47.9841C36.1322 47.5155 36.1802 47.0469 36.2583 46.5813C36.9522 42.3819 38.8116 38.7683 41.8245 35.7704C44.9485 32.6644 48.7183 30.802 53.0919 30.1772C53.4734 30.1232 53.8699 30.1532 54.2334 30.003C55.2637 30 56.3 30 57.3334 30Z" fill="#141820"/>
<path d="M169.145 53.8235C166.117 53.8235 163.089 53.8295 160.061 53.8175C159.743 53.8175 159.71 53.8865 159.782 54.1809C160.599 57.5633 163.2 59.7921 166.682 60.0895C167.829 60.1886 168.965 60.1616 170.091 59.9003C171.818 59.4977 173.185 58.5756 174.167 57.0977C174.291 56.9144 174.372 56.8754 174.57 56.9925C175.519 57.5452 176.471 58.0859 177.433 58.6176C177.64 58.7318 177.655 58.8039 177.52 59.0021C175.663 61.7356 173.083 63.2886 169.815 63.7152C167.388 64.0306 164.988 63.9074 162.72 62.9372C158.797 61.255 156.475 58.2692 155.835 54.0488C155.45 51.5015 155.667 48.9933 156.82 46.6533C158.565 43.1117 161.389 40.967 165.324 40.3572C167.397 40.0358 169.451 40.1229 171.437 40.8498C174.143 41.8411 176.036 43.7485 177.352 46.2538C178.547 48.5307 178.871 50.9728 178.616 53.5111C178.592 53.7394 178.523 53.8355 178.259 53.8355C175.222 53.8205 172.182 53.8235 169.145 53.8235ZM174.72 50.3931C174.675 50.1467 174.642 49.9335 174.594 49.7202C174.228 48.0831 173.528 46.6322 172.194 45.5539C169.953 43.7425 167.406 43.4872 164.756 44.3103C161.996 45.1694 160.428 47.1759 159.797 49.9545C159.698 50.3901 159.707 50.3931 160.142 50.3931C164.865 50.3931 169.587 50.3931 174.309 50.3931C174.435 50.3931 174.567 50.3931 174.72 50.3931Z" fill="#141820"/>
<path d="M100.814 56.0553C101.829 56.644 102.817 57.2148 103.806 57.7855C104.172 57.9988 104.175 58.0018 103.944 58.3803C102.343 60.9936 100.051 62.7268 97.0831 63.4568C93.4635 64.3429 90.0121 63.8923 86.9481 61.6515C84.1065 59.5758 82.5234 56.7492 82.2261 53.2256C82.0338 50.9277 82.2952 48.6928 83.3645 46.6322C85.1758 43.1387 88.0115 40.9699 91.9435 40.3541C94.3526 39.9757 96.7016 40.1949 98.9395 41.2253C101.06 42.2015 102.709 43.6944 103.824 45.7611C103.953 46.0044 103.965 46.1245 103.689 46.2777C102.754 46.7854 101.835 47.3261 100.919 47.8638C100.736 47.9719 100.664 47.9569 100.556 47.7616C99.2489 45.4156 97.2003 44.2291 94.5599 44.0609C91.5711 43.8687 89.165 44.9951 87.4498 47.4613C86.2362 49.2035 85.9058 51.174 86.2032 53.2407C86.6177 56.1484 88.1977 58.2781 90.9102 59.3535C94.0012 60.5791 96.9299 60.1255 99.4682 57.8576C100.024 57.353 100.447 56.7342 100.814 56.0553Z" fill="#141820"/>
<path d="M143.445 56.0528C144.52 56.6746 145.577 57.2964 146.647 57.9062C146.839 58.0173 146.731 58.1044 146.671 58.2126C145.677 59.9668 144.28 61.3155 142.538 62.3188C140.3 63.6075 137.882 64.034 135.328 63.7877C131.222 63.3882 128.188 61.3276 126.176 57.768C125.043 55.7644 124.704 53.5626 124.818 51.2827C124.959 48.4621 125.938 45.9839 127.873 43.9022C130.063 41.5502 132.778 40.3517 135.986 40.2105C138.602 40.0963 141.024 40.6641 143.201 42.148C144.61 43.1062 145.71 44.3378 146.494 45.8547C146.59 46.041 146.581 46.1221 146.388 46.2302C145.43 46.7649 144.481 47.3146 143.532 47.8673C143.37 47.9604 143.301 47.9724 143.192 47.7802C141.814 45.317 139.657 44.1245 136.878 44.0494C133.661 43.9593 131.189 45.329 129.672 48.1497C127.512 52.1658 128.945 57.8821 134.061 59.5523C136.962 60.4985 139.69 59.9968 142.027 57.9182C142.616 57.3925 143.066 56.7557 143.445 56.0528Z" fill="#141820"/>
<path d="M75.644 49.8046C75.5599 55.4308 73.5143 60.219 69.4741 64.154C69.3089 64.3162 69.2278 64.3432 69.0566 64.136C67.9001 62.7392 66.7286 61.3574 65.551 59.9787C65.4159 59.8195 65.4309 59.7504 65.5751 59.6032C68.6931 56.3921 70.0749 52.5682 69.5642 48.1104C69.2007 44.9324 67.81 42.2349 65.5631 39.973C65.4369 39.8468 65.4129 39.7868 65.536 39.6396C66.7256 38.2428 67.9121 36.843 69.0866 35.4342C69.2338 35.2569 69.3149 35.278 69.4621 35.4222C72.9075 38.7624 74.9531 42.7966 75.5148 47.5697C75.5989 48.3057 75.65 49.0506 75.644 49.8046Z" fill="#141820"/>
<path d="M148.831 46.8217C148.831 41.4899 148.834 36.158 148.822 30.8262C148.822 30.4988 148.912 30.4387 149.219 30.4447C150.297 30.4658 151.376 30.4628 152.457 30.4447C152.742 30.4387 152.793 30.5288 152.793 30.7932C152.787 40.6999 152.787 50.6036 152.787 60.5103C152.787 61.3333 152.781 62.1594 152.79 62.9825C152.793 63.1897 152.751 63.2648 152.523 63.2618C151.379 63.2498 150.234 63.2498 149.087 63.2618C148.852 63.2648 148.825 63.1777 148.828 62.9795C148.837 62.0332 148.831 61.087 148.831 60.1438C148.831 55.7041 148.831 51.2614 148.831 46.8217Z" fill="#141820"/>
<path d="M118.245 44.3794C118.701 43.5924 119.2 42.8505 119.864 42.2317C121.071 41.1082 122.537 40.5856 124.153 40.4233C124.448 40.3933 124.745 40.3903 125.042 40.3633C125.223 40.3482 125.265 40.4203 125.262 40.5886C125.256 41.8081 125.256 43.0277 125.262 44.2473C125.262 44.4305 125.226 44.4725 125.021 44.4695C122.976 44.4485 121.158 45.0373 119.738 46.5662C118.818 47.5545 118.464 48.7951 118.311 50.1078C118.248 50.6545 118.242 51.2042 118.242 51.7539C118.245 55.4787 118.239 59.2064 118.251 62.9312C118.251 63.2106 118.179 63.2707 117.908 63.2647C116.809 63.2466 115.706 63.2526 114.607 63.2616C114.391 63.2647 114.307 63.2256 114.307 62.9793C114.313 55.6709 114.313 48.3625 114.307 41.0542C114.307 40.8319 114.355 40.7538 114.595 40.7568C115.727 40.7688 116.863 40.7688 117.995 40.7568C118.206 40.7538 118.251 40.8199 118.248 41.0151C118.239 42.1356 118.245 43.259 118.245 44.3794Z" fill="#141820"/>
<path d="M110.153 52.0097C110.153 55.6473 110.15 59.285 110.159 62.9257C110.159 63.202 110.084 63.2681 109.814 63.2651C108.702 63.2501 107.591 63.2531 106.479 63.2621C106.269 63.2651 106.203 63.2171 106.203 62.9948C106.209 55.6744 106.209 48.354 106.203 41.0336C106.203 40.7813 106.296 40.7543 106.51 40.7573C107.6 40.7663 108.69 40.7723 109.778 40.7543C110.072 40.7482 110.162 40.8173 110.159 41.1267C110.147 44.7554 110.153 48.381 110.153 52.0097Z" fill="#141820"/>
<path d="M105.543 34.1036C105.534 32.6318 106.678 31.4903 108.108 31.4272C109.583 31.3611 110.836 32.6708 110.821 34.0586C110.806 35.5335 109.694 36.687 108.234 36.696C106.7 36.705 105.549 35.5966 105.543 34.1036Z" fill="#141820"/>
</svg>
