<svg width="214" height="99" viewBox="0 0 214 99" fill="none" xmlns="http://www.w3.org/2000/svg">
<rect x="214" width="99" height="214" rx="16" transform="rotate(90 214 0)" fill="white" fill-opacity="0.35"/>
<rect x="12" y="87" width="75" height="190" rx="12" transform="rotate(-90 12 87)" fill="white" fill-opacity="0.3"/>
<path d="M28 42.878C28.1713 42.4393 28.1683 41.9675 28.2524 41.5138C29.253 36.0689 33.7214 31.4893 39.1693 30.3384C40.206 30.1191 41.2518 30.0049 42.3125 30.0079C46.0897 30.0169 49.8669 29.9779 53.6441 30.0199C57.3432 30.062 60.5494 31.4052 63.2299 33.9414C65.5827 36.168 66.992 38.9055 67.5029 42.0998C67.6171 42.8059 67.6621 43.5181 67.6621 44.2333C67.6591 48.0255 67.6892 51.8207 67.6471 55.6129C67.605 59.306 66.2618 62.5063 63.7227 65.1867C61.493 67.5365 58.7495 68.9368 55.5522 69.4597C55.2487 69.5108 54.9302 69.4777 54.6387 69.6069C50.0562 69.6069 45.4737 69.6069 40.8912 69.6069C40.8701 69.5138 40.789 69.5438 40.7319 69.5378C40.209 69.4717 39.6892 69.3876 39.1723 69.2794C33.7274 68.1285 29.2591 63.546 28.2584 58.104C28.1743 57.6503 28.1773 57.1785 28.006 56.7398C28 52.1182 28 47.4996 28 42.878ZM40.9423 37.7636C40.9423 37.956 40.9423 38.0762 40.9423 38.1933C40.9423 42.7699 40.9392 47.3434 40.9513 51.9199C40.9513 52.2294 40.8671 52.2835 40.5847 52.2474C40.0348 52.1753 39.4849 52.2084 38.944 52.3226C37.8321 52.5569 36.8285 52.9987 36.1013 53.9152C35.1517 55.1171 35.3891 56.7909 36.6241 57.6232C37.147 57.9748 37.739 58.1371 38.352 58.2272C39.7343 58.4346 41.0594 58.3144 42.2163 57.443C43.4394 56.5204 44.1665 55.3575 44.1395 53.7499C44.0944 51.1566 44.1275 48.5604 44.1275 45.9641C44.1275 45.8589 44.1275 45.7538 44.1275 45.6486C44.2417 45.6666 44.2807 45.7267 44.3318 45.7808C45.666 47.1661 47.0062 48.5514 48.3404 49.9366C48.6709 50.2792 48.6649 50.2822 48.9925 49.9547C50.3777 48.5694 51.766 47.1871 53.1543 45.8049C53.2294 45.7297 53.2865 45.6035 53.4338 45.6095C53.4338 45.6907 53.4338 45.7568 53.4338 45.8229C53.4338 51.1566 53.4368 56.4904 53.4278 61.8242C53.4278 62.0916 53.4788 62.1757 53.7613 62.1697C54.6207 62.1487 55.4801 62.1547 56.3395 62.1667C56.5619 62.1697 56.634 62.1247 56.634 61.8843C56.628 53.9542 56.628 46.0242 56.625 38.0972C56.625 38.0221 56.6791 37.9199 56.5589 37.8628C54.0047 40.414 51.4505 42.9652 48.9023 45.5224C48.7431 45.6817 48.6649 45.7027 48.4997 45.5314C47.4239 44.4136 46.3391 43.3047 45.2573 42.1959C43.839 40.7355 42.4177 39.2781 40.9423 37.7636Z" fill="#141820"/>
<path d="M78.506 46.4174C78.6413 46.4234 78.6352 46.3333 78.6623 46.2852C79.7591 44.338 81.4148 43.3284 83.6565 43.2863C84.6421 43.2683 85.6127 43.3614 86.5442 43.707C87.7913 44.1697 88.6838 45.0201 89.2637 46.2071C89.2968 46.2762 89.3268 46.3453 89.3629 46.4144C89.3719 46.4295 89.3989 46.4385 89.432 46.4595C89.8497 45.7594 90.3425 45.1193 90.9795 44.6025C92.1064 43.692 93.4255 43.3404 94.8409 43.2953C95.9497 43.2592 97.0375 43.3735 98.0591 43.8542C99.814 44.6776 100.725 46.141 101.157 47.959C101.371 48.8605 101.461 49.777 101.461 50.7025C101.461 54.1011 101.458 57.4996 101.47 60.8982C101.47 61.2077 101.383 61.2768 101.088 61.2708C99.8771 61.2528 98.6662 61.2558 97.4522 61.2708C97.1607 61.2738 97.0675 61.2137 97.0675 60.9012C97.0795 57.734 97.0735 54.5668 97.0765 51.3996C97.0765 50.8377 97.0405 50.2788 96.9203 49.7289C96.4966 47.8117 95.2105 47.0905 93.4105 47.2768C91.7308 47.4511 90.6249 48.5509 90.2553 50.2998C90.1351 50.8738 90.0961 51.4537 90.0931 52.0337C90.0901 54.9935 90.0871 57.9504 90.0991 60.9102C90.0991 61.2017 90.03 61.2768 89.7385 61.2708C88.5155 61.2528 87.2925 61.2498 86.0695 61.2708C85.7509 61.2768 85.6998 61.1717 85.6998 60.8862C85.7089 57.5327 85.7059 54.1762 85.7059 50.8227C85.7059 50.3028 85.6548 49.795 85.5165 49.2902C85.186 48.0732 84.4258 47.37 83.1456 47.2648C81.4629 47.1296 80.0446 47.7126 79.2573 49.2331C78.8877 49.9482 78.7464 50.7235 78.7434 51.5258C78.7404 54.648 78.7374 57.7731 78.7494 60.8952C78.7494 61.2017 78.6653 61.2738 78.3678 61.2708C77.1238 61.2528 75.8797 61.2558 74.6327 61.2708C74.3803 61.2738 74.3262 61.1987 74.3262 60.9553C74.3322 55.312 74.3322 49.6718 74.3292 44.0285C74.3292 43.8182 74.3532 43.719 74.6056 43.722C75.8166 43.737 77.0276 43.734 78.2416 43.722C78.473 43.719 78.506 43.8032 78.503 44.0015C78.491 44.7046 78.5 45.4078 78.5 46.1139C78.506 46.2161 78.506 46.3183 78.506 46.4174Z" fill="#141820"/>
<path d="M182.643 58.8702C182.268 59.2608 181.967 59.6755 181.592 60.0301C180.45 61.1059 179.049 61.5686 177.52 61.6708C176.002 61.773 174.53 61.5476 173.187 60.7934C171.531 59.8648 170.587 58.4765 170.548 56.5353C170.506 54.48 171.336 52.9024 173.112 51.8477C174.314 51.1355 175.645 50.814 177.009 50.6006C178.767 50.3241 180.537 50.3211 182.31 50.3422C182.583 50.3452 182.646 50.2791 182.652 50.0026C182.691 47.8451 181.288 46.8805 179.488 46.6491C177.475 46.3877 175.681 46.9436 174.142 48.2748C174.004 48.395 173.941 48.389 173.812 48.2568C173.199 47.6257 172.571 47.0067 171.949 46.3847C171.657 46.0932 171.657 46.0932 171.97 45.8017C173.223 44.6298 174.716 43.9327 176.387 43.5841C178.298 43.1844 180.209 43.1153 182.096 43.6652C184.843 44.4675 186.117 46.1623 186.493 49.005C186.586 49.7051 186.589 50.4083 186.589 51.1114C186.592 54.3778 186.586 57.6412 186.598 60.9075C186.598 61.208 186.514 61.2681 186.231 61.2651C185.131 61.2471 184.029 61.2501 182.929 61.2651C182.691 61.2681 182.637 61.196 182.64 60.9706C182.652 60.2705 182.643 59.5703 182.643 58.8702ZM181.012 53.4042C180.197 53.4252 179.383 53.4583 178.578 53.5725C177.55 53.7197 176.549 53.9601 175.687 54.5851C175.194 54.9397 174.957 55.4235 174.936 56.0155C174.9 57.0131 175.54 57.8335 176.621 58.1851C177.448 58.4525 178.292 58.4345 179.133 58.3113C180.525 58.1069 181.58 57.4368 182.105 56.0786C182.421 55.2613 182.397 54.4019 182.394 53.5424C182.394 53.3832 182.298 53.4012 182.199 53.4012C181.802 53.4042 181.408 53.4042 181.012 53.4042Z" fill="#141820"/>
<path d="M118.015 58.4974C117.58 59.2336 117.057 59.8857 116.42 60.4506C115.578 61.1928 114.581 61.5564 113.481 61.6496C112.003 61.7728 110.554 61.6676 109.223 60.9254C107.678 60.066 106.834 58.7077 106.455 57.022C106.287 56.2677 106.218 55.5045 106.218 54.7322C106.218 51.1804 106.221 47.6285 106.209 44.0737C106.209 43.7762 106.287 43.7131 106.573 43.7191C107.796 43.7372 109.019 43.7342 110.242 43.7191C110.527 43.7161 110.623 43.7672 110.623 44.0827C110.608 47.0516 110.608 50.0205 110.62 52.9924C110.623 53.8488 110.671 54.7052 110.939 55.5315C111.588 57.5358 112.88 57.8754 114.488 57.6981C116.113 57.5178 117.508 56.3128 117.754 54.1102C117.799 53.7165 117.811 53.3229 117.808 52.9263C117.805 49.9664 117.808 47.0095 117.802 44.0497C117.802 43.8063 117.841 43.7161 118.115 43.7191C119.371 43.7372 120.627 43.7372 121.883 43.7191C122.156 43.7161 122.195 43.8063 122.195 44.0497C122.189 49.6809 122.189 55.3122 122.195 60.9434C122.195 61.2079 122.12 61.268 121.868 61.265C120.678 61.2529 119.488 61.2529 118.298 61.265C118.066 61.268 118.003 61.2048 118.009 60.9735C118.024 60.1471 118.015 59.3238 118.015 58.4974Z" fill="#141820"/>
<path d="M131.093 57.7377C131.288 57.7377 131.405 57.7377 131.522 57.7377C134.563 57.7377 137.601 57.7408 140.642 57.7317C140.91 57.7317 141 57.7828 140.994 58.0683C140.976 59.0359 140.979 60.0035 140.991 60.971C140.994 61.2024 140.928 61.2625 140.696 61.2625C135.849 61.2565 131.005 61.2565 126.159 61.2625C125.915 61.2625 125.876 61.1784 125.879 60.9651C125.888 59.7871 125.888 58.6122 125.879 57.4343C125.879 57.254 125.939 57.1337 126.059 57.0045C129.079 53.8223 132.093 50.6341 135.107 47.4458C135.149 47.4008 135.215 47.3677 135.215 47.2836C135.11 47.2024 134.987 47.2475 134.873 47.2475C132.141 47.2445 129.41 47.2385 126.678 47.2535C126.375 47.2565 126.324 47.1664 126.33 46.8899C126.348 45.9223 126.345 44.9548 126.33 43.9872C126.327 43.7648 126.396 43.7197 126.606 43.7197C131.165 43.7257 135.726 43.7257 140.285 43.7197C140.489 43.7197 140.564 43.7558 140.561 43.9842C140.549 45.1621 140.552 46.337 140.558 47.515C140.558 47.6742 140.501 47.7764 140.399 47.8846C137.316 51.1449 134.236 54.4083 131.093 57.7377Z" fill="#141820"/>
<path d="M153.3 52.458C153.366 49.0233 154.709 46.2408 157.78 44.567C160.978 42.8242 164.268 42.7701 167.501 44.5881C168.06 44.9036 168.535 45.3303 168.989 45.781C169.115 45.9042 169.139 45.9793 169.001 46.1176C168.084 47.022 167.174 47.9325 166.266 48.846C166.131 48.9843 166.062 48.9662 165.939 48.837C165.29 48.1819 164.575 47.602 163.667 47.3706C162.294 47.022 161.014 47.3315 159.878 48.1279C158.192 49.3088 157.531 51.0036 157.702 52.9989C157.877 55.0272 158.895 56.5387 160.803 57.35C162.48 58.0622 164.68 57.8849 166.044 56.2502C166.161 56.109 166.218 56.115 166.339 56.2472C167.216 57.2028 168.099 58.1523 168.992 59.0959C169.13 59.2401 169.058 59.3062 168.947 59.4054C167.829 60.4211 166.501 61.0431 165.049 61.3766C161.567 62.1729 158.439 61.4638 155.845 58.9546C154.217 57.3801 153.423 55.3788 153.303 53.116C153.291 52.8997 153.3 52.6773 153.3 52.458Z" fill="#141820"/>
<path d="M149.146 52.5033C149.146 55.3069 149.14 58.1105 149.155 60.9141C149.158 61.2206 149.065 61.2687 148.789 61.2627C147.545 61.2477 146.301 61.2507 145.057 61.2627C144.81 61.2657 144.744 61.2026 144.744 60.9532C144.75 55.3129 144.75 49.6697 144.744 44.0294C144.744 43.789 144.795 43.7139 145.051 43.7169C146.316 43.7319 147.584 43.7319 148.849 43.7169C149.098 43.7139 149.152 43.78 149.152 44.0234C149.143 46.851 149.146 49.6787 149.146 52.5033Z" fill="#141820"/>
<path d="M149.753 37.8083C149.75 39.3078 148.539 40.4286 146.919 40.4286C145.357 40.4256 144.134 39.2627 144.131 37.7813C144.131 36.357 145.375 35.0979 146.995 35.149C148.575 35.197 149.753 36.2908 149.753 37.8083Z" fill="#141820"/>
</svg>
