<svg width="32" height="32" viewBox="0 0 32 32" fill="none" xmlns="http://www.w3.org/2000/svg">
<path d="M18.2912 7.94503C14.6775 8.40949 7.0624 6.41039 6.59792 2.79652L6.54442 2.8034C6.91616 5.69577 8.42164 8.32201 10.7297 10.1044C13.0377 11.8868 15.9593 12.6793 18.8517 12.3077C20.5871 12.0847 22.3401 12.5601 23.725 13.6295C25.1099 14.6989 26.0132 16.2747 26.2363 18.0101C26.4597 19.7455 25.9846 21.4987 24.9154 22.8838C23.8462 24.2689 22.2706 25.1725 20.5353 25.3959C18.7997 25.6193 17.0466 25.1441 15.6616 24.0749C14.2765 23.0058 13.3728 21.4302 13.1494 19.6948C12.9653 18.2626 12.5009 16.8806 11.7827 15.628C11.0645 14.3752 10.1067 13.2762 8.96374 12.3937C7.82083 11.5112 6.5153 10.8624 5.12165 10.4844C3.72802 10.1065 2.27357 10.0067 0.841379 10.1909L0.848201 10.2439C4.46139 9.77955 8.32082 16.6385 8.78671 20.2527L8.78603 20.2528C9.06325 22.4099 9.97384 24.4362 11.4027 26.0757C12.8315 27.7152 14.7144 28.8941 16.8133 29.4634C18.9122 30.0329 21.1328 29.9671 23.1943 29.2744C25.2557 28.5818 27.0655 27.2934 28.3948 25.5723C29.724 23.851 30.5131 21.7743 30.6621 19.6046C30.8112 17.435 30.3134 15.27 29.232 13.3832C28.1505 11.4964 26.5339 9.9727 24.5865 9.00471C22.6389 8.03674 20.4482 7.66797 18.2912 7.94503Z" fill="url(#paint0_linear)"/>
<defs>
<linearGradient id="paint0_linear" x1="10.8687" y1="6.4705" x2="32.86" y2="31.7606" gradientUnits="userSpaceOnUse">
<stop stop-color="#57B8FF"/>
<stop offset="0.940625" stop-color="#038EF2"/>
<stop offset="1" stop-color="white" stop-opacity="0"/>
</linearGradient>
</defs>
</svg>
